<svg xmlns="http://www.w3.org/2000/svg" width="256" height="256" viewBox="0 0 100 100"><rect width="100" height="100" rx="20" fill="#7d6ee7"></rect><path fill="#fff" d="M75.17 25.43Q76.85 25.67 77.48 26.45Q78.11 27.23 78.11 28.49L78.11 28.49Q78.11 32.63 73.67 32.33L73.67 32.33L71.57 32.15Q68.03 31.85 64.52 31.67Q61.01 31.49 57.17 31.49L57.17 31.49L54.47 31.49Q53.75 40.37 52.97 47.69L52.97 47.69L63.29 47.51Q65.51 47.51 66.26 48.29Q67.01 49.07 67.01 50.39L67.01 50.39Q67.01 52.43 65.81 53.60Q64.61 54.77 62.39 54.77L62.39 54.77L52.13 54.77L51.77 57.35Q50.51 67.25 46.40 71.45Q42.29 75.65 35.09 75.65L35.09 75.65Q31.01 75.65 27.59 73.88Q24.17 72.11 22.55 69.59L22.55 69.59Q21.89 68.57 21.89 67.13L21.89 67.13Q21.89 65.69 22.58 64.61Q23.27 63.53 24.29 63.53L24.29 63.53Q25.01 63.53 25.70 64.01Q26.39 64.49 27.47 65.87L27.47 65.87Q30.35 69.65 34.61 69.65L34.61 69.65Q38.03 69.65 40.34 66.86Q42.65 64.07 43.31 58.07L43.31 58.07L43.67 54.77L40.79 54.77Q39.41 54.77 38.42 53.99Q37.43 53.21 37.43 51.77L37.43 51.77Q37.43 49.91 38.39 48.92Q39.35 47.93 41.21 47.93L41.21 47.93Q42.89 47.93 44.51 47.87L44.51 47.87Q45.23 41.27 46.07 31.85L46.07 31.85Q39.59 32.45 36.95 33.95Q34.31 35.45 34.31 38.39L34.31 38.39Q34.31 40.43 35.51 42.29L35.51 42.29Q35.87 42.83 35.87 43.37L35.87 43.37Q35.87 44.45 34.67 45.26Q33.47 46.07 31.97 46.07L31.97 46.07Q30.35 46.07 29.21 45.11L29.21 45.11Q28.49 44.51 27.83 42.65Q27.17 40.79 27.17 38.51L27.17 38.51Q27.17 31.07 34.82 27.71Q42.47 24.35 57.17 24.35L57.17 24.35Q67.37 24.35 75.17 25.43L75.17 25.43Z"></path></svg>